<?xml version="1.0" encoding="utf-8"?>
<!-- Generator: Adobe Illustrator 16.0.0, SVG Export Plug-In . SVG Version: 6.00 Build 0)  -->
<!DOCTYPE svg PUBLIC "-//W3C//DTD SVG 1.1//EN" "http://www.w3.org/Graphics/SVG/1.1/DTD/svg11.dtd">
<svg version="1.1" id="Layer_1" xmlns="http://www.w3.org/2000/svg" xmlns:xlink="http://www.w3.org/1999/xlink" x="0px" y="0px"
	 width="50px" height="50px" viewBox="0 0 50 50" enable-background="new 0 0 50 50" xml:space="preserve">
<g>
	<path d="M20.372,21.264h9.256c0.433,0,0.784-0.352,0.784-0.784v-5.374c0-0.432-0.351-0.784-0.784-0.784h-9.256
		c-0.433,0-0.784,0.352-0.784,0.784v5.374C19.587,20.913,19.939,21.264,20.372,21.264z"/>
	<path d="M19.106,22.284h11.787c0.315,0,0.573-0.36,0.573-0.802h-5.271v0.31h-2.389v-0.31h-5.272
		C18.533,21.924,18.791,22.284,19.106,22.284z"/>
	<path d="M11.459,31.555h9.255c0.433,0,0.784-0.352,0.784-0.784v-5.375c0-0.432-0.352-0.784-0.784-0.784h-9.255
		c-0.433,0-0.784,0.352-0.784,0.784v5.375C10.675,31.203,11.027,31.555,11.459,31.555z"/>
	<path d="M22.554,31.772h-5.271v0.31h-2.39v-0.31H9.621c0,0.441,0.258,0.801,0.573,0.801H21.98
		C22.296,32.574,22.554,32.214,22.554,31.772z"/>
	<path d="M28.5,25.396v5.375c0,0.433,0.352,0.784,0.784,0.784h9.255c0.433,0,0.784-0.352,0.784-0.784v-5.375
		c0-0.432-0.352-0.784-0.784-0.784h-9.255C28.852,24.612,28.5,24.964,28.5,25.396z"/>
	<path d="M35.107,31.772v0.31h-2.39v-0.31h-5.272c0,0.441,0.258,0.801,0.573,0.801h11.787c0.315,0,0.573-0.36,0.573-0.801H35.107z"
		/>
	<polygon points="27.207,34.126 25.291,34.126 25.291,24.612 24.708,24.612 24.708,34.126 22.792,34.126 22.792,34.612 
		16.267,34.612 16.267,35.194 22.792,35.194 22.792,35.679 27.207,35.679 27.207,35.194 33.732,35.194 33.732,34.612 27.207,34.612 
			"/>
</g>
</svg>
